<?xml version="1.0" encoding="UTF-8"?>
<!DOCTYPE svg PUBLIC "-//W3C//DTD SVG 1.1//EN" "http://www.w3.org/Graphics/SVG/1.1/DTD/svg11.dtd">
<!-- Creator: CorelDRAW 2021 (64-Bit) -->
<svg xmlns="http://www.w3.org/2000/svg" xml:space="preserve" width="256px" height="256px" version="1.1" style="shape-rendering:geometricPrecision; text-rendering:geometricPrecision; image-rendering:optimizeQuality; fill-rule:evenodd; clip-rule:evenodd"
viewBox="0 0 256 256"
 xmlns:xlink="http://www.w3.org/1999/xlink"
 xmlns:xodm="http://www.corel.com/coreldraw/odm/2003">
 <defs>
  <style type="text/css">
   <![CDATA[
    .str0 {stroke:white;stroke-width:24;stroke-miterlimit:22.9256}
    .fil2 {fill:none}
    .fil1 {fill:black}
    .fil3 {fill:#EF0600}
    .fil0 {fill:white}
   ]]>
  </style>
 </defs>
 <g id="Layer_x0020_1">
  <metadata id="CorelCorpID_0Corel-Layer"/>
  <path class="fil0" d="M62.842 126.891c1.281,-2.016 2.643,-4.024 4.064,-6.01 -5.37,1.093 -10.439,0.31 -15.048,-1.859 -4.833,-2.274 -9.043,-6.086 -12.436,-10.805 -3.183,-4.428 -5.67,-9.698 -7.267,-15.223 -2.948,-10.202 -2.917,-21.54 1.272,-30.441 6.287,-13.358 12.911,-14.647 17.319,-15.505 0.298,-0.058 -0.138,0.224 0.21,0.058 1.821,-0.871 4.45,-0.992 6.882,-0.679 2.061,0.265 4.454,0.841 5.788,1.424l0.029 0c3.684,1.631 7.098,4.18 10.133,7.355 -0.243,-1.059 -0.458,-2.125 -0.643,-3.193 -1.222,-7.047 -1.153,-14.347 0.822,-20.813 1.764,-5.778 3.437,-10.757 6.622,-15.051 3.547,-4.782 8.443,-8.155 16.226,-9.76 3.653,-0.753 7.197,-0.392 10.55,0.891 5.398,2.064 10.174,6.511 13.909,12.393 2.789,4.393 5.063,9.709 6.596,15.457 3.305,-12.221 7.561,-25.069 24.523,-28.613 4.275,-0.894 8.8,-0.154 12.786,1.64 4.034,1.815 7.679,4.823 10.002,8.352 4.311,6.551 6.601,12.595 7.49,18.954 0.855,6.12 0.384,12.248 -0.832,19.254l0.05 -0.051c4.021,-4.073 8.988,-6.945 15.975,-8.216 2.247,-0.409 3.535,-0.196 5.002,0.047 0.43,0.071 -0.904,-0.149 0.378,0.046 0.3,0.046 -0.055,0.003 0.719,0.143 10.501,1.904 16.353,9.21 19.207,18.127 2.479,7.745 2.544,16.716 1.471,23.761 -0.005,0.031 -0.088,0.475 -0.275,1.507 -0.981,5.413 -3.286,11.338 -6.638,16.428 -3.141,4.769 -7.226,8.9 -12.077,11.423 -5.981,3.111 -11.656,3.974 -16.779,3.109 2.767,3.775 5.446,7.809 7.773,12.005 6.102,10.997 9.766,23.046 6.728,34.653 -2.136,8.158 -5.065,11.91 -9.278,17.304 -0.216,0.277 -0.439,0.563 -1.385,1.79 -0.363,0.471 -0.03,6.791 0.258,12.273 0.262,4.98 0.498,9.464 -0.315,12.4 -0.823,2.976 -2.573,5.097 -4.815,6.481 -2.29,1.413 -4.948,1.903 -7.48,1.656 -3.735,-0.365 -6.101,-2.014 -7.573,-4.421 -0.588,0.367 -1.213,0.682 -1.866,0.941 -1.314,0.521 -2.715,0.794 -4.131,0.789 -2.034,-0.007 -4.082,-0.547 -5.929,-1.702 -0.134,0.485 -0.298,0.964 -0.495,1.432 -1.728,4.106 -5.409,7.148 -11.675,7.148l-1.248 0 -1.09 -0.389c-0.106,1.608 -0.282,2.924 -0.555,3.85 -1.263,4.276 -4.207,7.42 -7.64,9.1 0.213,0.585 0.382,1.186 0.506,1.794 0.47,2.313 0.275,4.812 -0.676,7.069 -1.676,3.975 -5.296,7.047 -11.167,7.047 -3.667,0 -6.582,-1.665 -8.587,-4.152 -1.249,-1.548 -2.085,-3.391 -2.461,-5.279 -0.372,-1.868 -0.315,-3.873 0.218,-5.768 0.735,-2.607 2.313,-4.952 4.841,-6.508l-0.01 -0.021c-1.302,-2.707 0.53,-11.476 -1.654,-9.292 -2.756,0.883 -0.598,-0.478 -2.756,2.483 -0.906,1.243 -2.026,2.276 -3.254,3.052 -1.247,0.788 -2.649,1.345 -4.094,1.62 -4.031,0.768 -8.238,-0.504 -10.859,-4.655 -0.223,-0.353 -0.428,-0.701 -0.616,-1.044 -1.126,1.05 -2.416,1.795 -3.791,2.27l0 0.028c-1.748,0.603 -3.588,0.715 -5.352,0.421 -1.642,-0.273 -3.225,-0.907 -4.594,-1.824 -1.954,-1.31 -3.543,-3.247 -4.358,-5.608 -0.413,-1.198 -0.62,-3.453 -0.708,-6.094 -0.357,0.073 -0.729,0.139 -1.119,0.197 -8.71,1.297 -12.073,-3.638 -13.148,-10.852 -0.443,-2.976 -0.292,-6.29 -0.152,-9.39 0.104,-2.284 0.199,-4.395 0.098,-4.692 -0.077,-0.228 -0.544,-0.439 -1.347,-1.301 -3.196,-3.43 -7.794,-8.364 -10.837,-18.597 -3.532,-11.874 1.764,-26.524 10.563,-40.364z"/>
  <path class="fil1" d="M126.332 84.502c-7.854,0.593 -12.913,2.014 -19.953,6.521 -17.116,10.958 -53.964,51.336 -47.165,74.194 3.861,12.98 10.852,15.951 12.1,19.615 1.65,4.845 -3.032,21.335 5.304,20.093 5.714,-0.851 0.581,-9.576 4.821,-12.152 2.429,-1.476 4.763,1.249 4.748,3.579 -0.018,2.946 -0.657,17.008 0.128,19.282 0.916,2.656 5.016,3.937 6.917,1.101 2.239,-3.342 -0.424,-23.168 0.885,-27.453 2.68,-8.776 17.209,-9.313 17.229,1.121 0.006,3.545 -1.681,18.42 5.724,14.839 6.237,-3.017 -1.824,-16.889 5.625,-17.919 5.502,-0.76 3.782,10.84 3.79,15.633 0.007,4.774 -0.981,20.662 0.846,24.463 2.501,5.204 9.841,3.51 11.529,-2.206 1.446,-4.894 -1.532,-37.615 1.434,-40.618 2.525,-2.557 6.711,-3.193 9.125,0.026 1.619,2.198 0.744,5.477 0.926,8.145 0.187,2.736 3.553,4.495 5.438,2.402 1.485,-1.649 -1.072,-5.643 2.702,-7.003 7.528,-2.714 2.704,17.384 5.29,20.15 2.658,2.845 7.073,0.996 7.087,-2.9 0.01,-2.664 -0.777,-15.294 0.455,-17.232 1.771,-2.786 5.329,-2.346 6.53,0.758 1.551,4.008 -2.809,22.885 3.191,23.471 1.998,0.196 4.024,-0.6 4.652,-2.871 1.259,-4.553 -2.006,-22.872 1.302,-27.164 4.438,-5.76 7.416,-8.953 9.388,-16.49 4.971,-18.992 -12.927,-41.122 -24.515,-54.307 -11.159,-12.698 -26.892,-28.486 -45.533,-27.078zm-24.856 106.807c-2.664,1.745 -1.856,6.609 1.622,5.405 4.557,-1.578 1.029,-7.142 -1.622,-5.405zm5.279 21.736c-2.579,1.401 -4.995,2.796 -2.437,6.846 2.347,3.718 9.256,-0.213 6.332,-5.168 -0.822,-1.391 -2.438,-1.779 -3.895,-1.678zm20.064 31.969c7.833,0 5.424,-11.616 -1.613,-8.607 -4.042,1.729 -2.736,8.607 1.613,8.607zm21.87 -28.471c10.421,0 3.656,-15.838 -2.841,-9.311 -2.306,2.317 -2.229,7.25 0.457,8.459l2.384 0.852zm-94.619 -162.926c-2.661,1.273 -8.164,-0.599 -14.104,12.021 -9.027,19.181 6.112,53.834 26.975,47.804 24.21,-6.997 13.395,-50.292 -6.202,-58.967 -1.451,-0.633 -5.672,-1.335 -6.669,-0.858zm145.068 -0.061c-10.658,1.938 -15.025,8.63 -19.725,17.714 -12.146,23.473 0.964,51.643 22.898,40.236 7.908,-4.112 13.407,-14.191 14.95,-22.699 2.248,-12.401 0.597,-32.712 -15.093,-35.102 -1.04,-0.158 -1.842,-0.366 -3.03,-0.149zm-100.88 -40.089c-11.578,2.387 -14.269,9.629 -17.384,19.828 -3.432,11.237 0.298,26.335 6.254,36.071 8.061,13.179 27.217,13.013 32.896,-1.836 9.054,-23.678 -5.447,-57.428 -21.766,-54.063zm55.607 0.127c-15.031,3.14 -17.248,17.428 -20.506,28.96 -3.41,12.07 0.695,33.194 15.309,36.088 14.91,2.953 23.786,-12.351 25.994,-24.922 2.26,-12.875 1.835,-22.086 -5.511,-33.247 -3.038,-4.618 -9.727,-8.041 -15.286,-6.879z"/>
  <path class="fil2 str0" d="M96.795 127.51c-0.033,4.425 -0.397,3.391 1.06,8.769 2.59,9.562 19.376,25.576 28.273,29.713 3.134,1.457 4.456,-0.657 10.699,-4.663 9.083,-5.828 25.271,-22.152 21.665,-35.465 -3.989,-14.729 -22.765,-15.681 -29.579,-2.082 -0.32,0.668 -0.65,1.719 -1.189,2.159 -1.324,-2.153 -5.074,-11.142 -12.946,-11.384 -6.018,-0.184 -11.634,-0.668 -16.344,7.861 -0.56,1.015 -1.634,4.412 -1.639,5.092z"/>
  <path class="fil3" d="M96.795 127.51c-0.033,4.425 -0.397,3.391 1.06,8.769 2.59,9.562 19.376,25.576 28.273,29.713 3.134,1.457 4.456,-0.657 10.699,-4.663 9.083,-5.828 25.271,-22.152 21.665,-35.465 -3.989,-14.729 -22.765,-15.681 -29.579,-2.082 -0.32,0.668 -0.65,1.719 -1.189,2.159 -1.324,-2.153 -5.074,-11.142 -12.946,-11.384 -6.018,-0.184 -11.634,-0.668 -16.344,7.861 -0.56,1.015 -1.634,4.412 -1.639,5.092z"/>
 </g>
</svg>
